<svg width="229" height="118" viewBox="0 0 229 118" fill="none" xmlns="http://www.w3.org/2000/svg">
<path d="M140.8 75.6396H136.113C135.924 75.6348 135.744 75.5566 135.612 75.4214C135.48 75.2862 135.406 75.105 135.406 74.9162V41.6408C135.406 41.452 135.48 41.2708 135.612 41.1356C135.744 41.0004 135.924 40.9217 136.113 40.917H156.043C156.232 40.9212 156.413 40.9995 156.545 41.1347C156.678 41.27 156.752 41.4517 156.752 41.6408V46.4617C156.752 46.6508 156.678 46.8321 156.545 46.9674C156.413 47.1026 156.232 47.1808 156.043 47.1851H142.216C142.026 47.1894 141.846 47.2676 141.713 47.4028C141.581 47.5381 141.507 47.7194 141.507 47.9085V56.0959C141.507 56.2851 141.581 56.4668 141.713 56.6021C141.846 56.7373 142.026 56.8151 142.216 56.8193H149.948C150.137 56.8245 150.316 56.9033 150.448 57.0384C150.579 57.1735 150.653 57.3547 150.653 57.5432V62.3623C150.653 62.5508 150.579 62.7315 150.448 62.8666C150.316 63.0018 150.137 63.0805 149.948 63.0857H142.221C142.032 63.0899 141.851 63.1682 141.719 63.3034C141.586 63.4386 141.512 63.62 141.512 63.8091V74.8852C141.512 75.0741 141.438 75.2553 141.306 75.3905C141.174 75.5257 140.994 75.6044 140.805 75.6091" fill="#3C4257"/>
<path d="M164.396 75.6401H159.974C159.785 75.6358 159.605 75.5576 159.472 75.4223C159.34 75.2871 159.266 75.1058 159.266 74.9167V41.6413C159.266 41.4522 159.34 41.2704 159.472 41.1352C159.605 41 159.785 40.9217 159.974 40.9175H164.403C164.593 40.9222 164.772 41.0009 164.905 41.1361C165.037 41.2713 165.111 41.4525 165.111 41.6413V74.9149C165.111 75.1037 165.037 75.2849 164.905 75.4201C164.772 75.5553 164.593 75.6336 164.403 75.6383" fill="#3C4257"/>
<path d="M172.451 75.6398C171.664 75.6279 170.914 75.3049 170.366 74.7415C169.818 74.1781 169.517 73.4204 169.528 72.6353V55.2261C169.519 54.837 169.587 54.45 169.73 54.0876C169.872 53.7252 170.086 53.3947 170.358 53.116C170.631 52.8373 170.956 52.6158 171.316 52.4646C171.675 52.3134 172.062 52.2358 172.452 52.2358C172.842 52.2358 173.228 52.3134 173.588 52.4646C173.947 52.6158 174.273 52.8373 174.545 53.116C174.817 53.3947 175.031 53.7252 175.174 54.0876C175.316 54.45 175.385 54.837 175.375 55.2261V72.6353C175.381 73.0242 175.31 73.4102 175.166 73.7717C175.022 74.1331 174.808 74.4629 174.537 74.7419C174.265 75.021 173.941 75.2437 173.583 75.3978C173.225 75.5518 172.84 75.6341 172.451 75.6398" fill="#3C4257"/>
<path d="M184.935 84.5628H180.506C180.317 84.5581 180.137 84.4798 180.005 84.3446C179.873 84.2095 179.799 84.0282 179.799 83.8394V52.9445C179.799 52.7557 179.873 52.5744 180.005 52.4393C180.137 52.3041 180.317 52.2258 180.506 52.2211H180.868C180.973 52.2205 181.076 52.2434 181.17 52.2882C181.264 52.333 181.347 52.3987 181.412 52.4799L183.044 54.4694C183.104 54.5423 183.179 54.6024 183.263 54.6457C183.347 54.6889 183.439 54.7146 183.534 54.7212C183.628 54.7278 183.723 54.7152 183.812 54.6841C183.902 54.6529 183.984 54.6039 184.054 54.5401C184.416 54.2127 184.821 53.8979 185.236 53.5977C185.849 53.1524 186.499 52.7608 187.179 52.4273C187.851 52.1004 188.554 51.8411 189.277 51.6531C189.991 51.4636 190.726 51.3676 191.465 51.3674C193.015 51.3578 194.552 51.6592 195.983 52.2538C197.373 52.8321 198.631 53.6842 199.683 54.7592C200.766 55.8834 201.614 57.2107 202.179 58.6645C202.803 60.2796 203.111 61.999 203.086 63.7296C203.115 65.5024 202.808 67.2643 202.179 68.9228C201.62 70.382 200.771 71.7136 199.683 72.8374C198.633 73.9041 197.373 74.7425 195.983 75.2995C194.478 75.8997 192.866 76.1889 191.246 76.1497C190.947 76.1473 190.649 76.118 190.356 76.0627C189.706 75.9409 189.071 75.7551 188.459 75.5076C187.968 75.311 187.485 75.0882 187.009 74.8398L186.672 74.6592C186.562 74.6024 186.44 74.5748 186.317 74.5797C186.194 74.5846 186.074 74.6217 185.97 74.687C185.865 74.7523 185.78 74.8436 185.722 74.952C185.663 75.0604 185.635 75.1819 185.638 75.3048V83.843C185.638 84.0321 185.564 84.2138 185.432 84.3491C185.299 84.4843 185.119 84.5625 184.929 84.5668L184.935 84.5628ZM197.268 63.7261C197.283 62.8155 197.128 61.91 196.811 61.056C196.535 60.3129 196.112 59.6327 195.568 59.0554C195.047 58.5113 194.417 58.0828 193.718 57.798C193.003 57.5061 192.238 57.358 191.465 57.3621C190.695 57.3566 189.932 57.5048 189.221 57.798C188.526 58.0849 187.9 58.5132 187.381 59.0554C186.837 59.633 186.414 60.3131 186.137 61.056C185.819 61.9099 185.664 62.8154 185.678 63.7261C185.668 64.6141 185.823 65.4962 186.137 66.3273C186.414 67.0731 186.837 67.7565 187.381 68.3385C187.904 68.8946 188.537 69.3374 189.239 69.6387C189.941 69.94 190.699 70.0933 191.463 70.0896C192.238 70.0931 193.005 69.9368 193.717 69.6303C194.416 69.3316 195.045 68.8916 195.566 68.3385C196.11 67.7568 196.533 67.0734 196.81 66.3273C197.122 65.4961 197.277 64.614 197.266 63.7261" fill="#3C4257"/>
<path d="M227.604 75.6417H227.273C227.159 75.6413 227.048 75.614 226.948 75.5614C226.848 75.5088 226.762 75.4325 226.698 75.3397L225.108 73.0697C225.054 72.9897 224.984 72.9217 224.902 72.8705C224.821 72.8193 224.729 72.7857 224.634 72.772C224.538 72.7584 224.441 72.7651 224.348 72.7914C224.255 72.8177 224.169 72.8631 224.095 72.9248C223.712 73.2504 223.317 73.5618 222.905 73.8584C222.292 74.3006 221.64 74.6878 220.958 75.016C220.313 75.3289 219.641 75.5814 218.949 75.7703C218.126 75.9911 217.275 76.0934 216.422 76.0741C214.956 76.0481 213.509 75.7334 212.165 75.148C210.774 74.5394 209.517 73.6621 208.467 72.5667C207.39 71.434 206.542 70.1048 205.969 68.652C204.75 65.4802 204.75 61.9705 205.969 58.7987C206.542 57.3399 207.39 56.0046 208.467 54.8646C209.515 53.7604 210.772 52.8746 212.165 52.2594C213.588 51.6307 215.128 51.3101 216.683 51.3188C217.214 51.3198 217.744 51.3639 218.268 51.4508C218.812 51.537 219.346 51.6797 219.861 51.8761C220.375 52.0732 220.863 52.3339 221.312 52.6521L221.326 52.6613C221.432 52.7412 221.559 52.7895 221.692 52.8009C221.824 52.8122 221.957 52.786 222.076 52.7254C222.194 52.6648 222.293 52.5722 222.361 52.4582C222.429 52.3441 222.464 52.2133 222.461 52.0806V41.6359C222.461 41.4471 222.535 41.2655 222.667 41.1303C222.799 40.9951 222.979 40.9168 223.168 40.9121H227.599C227.788 40.9164 227.969 40.9946 228.101 41.1298C228.234 41.2651 228.308 41.4468 228.308 41.6359V74.9073C228.308 75.0964 228.234 75.2782 228.101 75.4134C227.969 75.5487 227.788 75.6269 227.599 75.6311L227.604 75.6417ZM222.461 63.7119C222.461 62.8989 222.305 62.0933 222.002 61.3386C221.711 60.593 221.291 59.9042 220.761 59.3035C220.242 58.7185 219.618 58.2363 218.92 57.8819C218.227 57.524 217.457 57.3378 216.676 57.3391C215.906 57.334 215.143 57.4822 214.432 57.775C213.741 58.0609 213.119 58.4895 212.606 59.0323C212.068 59.6108 211.652 60.291 211.382 61.0329C211.073 61.8887 210.922 62.7935 210.936 63.7031C210.932 64.54 211.083 65.3706 211.382 66.1524C211.663 66.8988 212.077 67.5879 212.606 68.1856C213.115 68.7632 213.736 69.232 214.432 69.564C215.132 69.8985 215.899 70.0702 216.676 70.0666C217.457 70.0674 218.227 69.8817 218.92 69.5242C219.618 69.1697 220.242 68.6871 220.761 68.1022C221.291 67.5018 221.711 66.8129 222.002 66.0671C222.305 65.313 222.461 64.508 222.461 63.6956" fill="#3C4257"/>
<path d="M176.378 73.0677C176.381 73.6012 176.275 74.1297 176.067 74.6214C175.87 75.0898 175.585 75.5167 175.228 75.8787C174.87 76.2378 174.448 76.5272 173.984 76.7324C173.505 76.9408 172.987 77.0486 172.464 77.0486C171.941 77.0486 171.424 76.9408 170.944 76.7324C170.482 76.5289 170.063 76.2392 169.71 75.8787C169.358 75.5139 169.078 75.0876 168.881 74.6214C168.472 73.63 168.472 72.5177 168.881 71.5264C169.076 71.0565 169.357 70.6271 169.71 70.2602C170.063 69.8999 170.482 69.6102 170.944 69.4065C171.424 69.1981 171.941 69.0903 172.464 69.0903C172.987 69.0903 173.505 69.1981 173.984 69.4065C174.448 69.6119 174.87 69.9013 175.228 70.2602C175.963 71.0115 176.376 72.0194 176.378 73.0695" fill="#FFAF6E"/>
<g filter="url(#filter0_d)">
<mask id="path-7-inside-1" fill="white">
<path d="M32.1166 107H84.102C90.2324 107 96.1117 104.57 100.447 100.245C104.781 95.9195 107.217 90.0533 107.217 83.9364V32.0657C107.217 29.0368 106.619 26.0373 105.457 23.239C104.296 20.4406 102.593 17.8979 100.447 15.7561C98.3006 13.6143 95.7524 11.9154 92.9479 10.7562C90.1434 9.59693 87.1376 9.00012 84.102 9H32.1166C25.9858 9.00025 20.1061 11.4305 15.771 15.7561C11.4358 20.0817 9.00025 25.9484 9 32.0657V83.9345C9 90.0519 11.4355 95.9187 15.7707 100.244C20.1059 104.57 25.9857 107 32.1166 107"/>
</mask>
<path d="M32.1166 107H84.102C90.2324 107 96.1117 104.57 100.447 100.245C104.781 95.9195 107.217 90.0533 107.217 83.9364V32.0657C107.217 29.0368 106.619 26.0373 105.457 23.239C104.296 20.4406 102.593 17.8979 100.447 15.7561C98.3006 13.6143 95.7524 11.9154 92.9479 10.7562C90.1434 9.59693 87.1376 9.00012 84.102 9H32.1166C25.9858 9.00025 20.1061 11.4305 15.771 15.7561C11.4358 20.0817 9.00025 25.9484 9 32.0657V83.9345C9 90.0519 11.4355 95.9187 15.7707 100.244C20.1059 104.57 25.9857 107 32.1166 107" fill="white"/>
<path d="M84.102 107L84.102 107.5L84.102 107ZM107.217 32.0657L106.717 32.0657V32.0657H107.217ZM84.102 9L84.102 8.5H84.102V9ZM32.1166 9L32.1166 8.5L32.1166 8.5L32.1166 9ZM9 32.0657L8.5 32.0657V32.0657H9ZM9 83.9345H9.5H9ZM32.1166 107.5H84.102V106.5H32.1166V107.5ZM84.102 107.5C90.3647 107.5 96.371 105.018 100.8 100.599L100.093 99.8909C95.8524 104.123 90.1001 106.5 84.102 106.5L84.102 107.5ZM100.8 100.599C105.228 96.1798 107.717 90.1862 107.717 83.9364H106.717C106.717 89.9203 104.334 95.6593 100.093 99.8909L100.8 100.599ZM107.717 83.9364V32.0657H106.717V83.9364H107.717ZM107.717 32.0657C107.717 28.971 107.106 25.9064 105.919 23.0473L104.996 23.4307C106.132 26.1683 106.717 29.1026 106.717 32.0657L107.717 32.0657ZM105.919 23.0473C104.733 20.1882 102.993 17.5904 100.8 15.4022L100.094 16.11C102.194 18.2055 103.859 20.693 104.996 23.4307L105.919 23.0473ZM100.8 15.4022C98.6073 13.2139 96.004 11.4783 93.1389 10.2941L92.7569 11.2182C95.5008 12.3524 97.9939 14.0146 100.094 16.11L100.8 15.4022ZM93.1389 10.2941C90.2739 9.10981 87.2031 8.50013 84.102 8.5L84.102 9.5C87.0721 9.50012 90.013 10.084 92.7569 11.2182L93.1389 10.2941ZM84.102 8.5H32.1166V9.5H84.102V8.5ZM32.1166 8.5C25.8535 8.50026 19.8468 10.9829 15.4178 15.4022L16.1241 16.11C20.3655 11.8781 26.1181 9.50025 32.1166 9.5L32.1166 8.5ZM15.4178 15.4022C10.9888 19.8214 8.50026 25.8154 8.5 32.0657L9.5 32.0657C9.50025 26.0814 11.8829 20.342 16.1241 16.11L15.4178 15.4022ZM8.5 32.0657V83.9345H9.5V32.0657H8.5ZM8.5 83.9345C8.5 90.1849 10.9884 96.179 15.4175 100.598L16.1239 99.8904C11.8825 95.6585 9.5 89.9189 9.5 83.9345H8.5ZM15.4175 100.598C19.8466 105.018 25.8535 107.5 32.1166 107.5V106.5C26.118 106.5 20.3652 104.122 16.1239 99.8904L15.4175 100.598Z" fill="#E2E8FC" mask="url(#path-7-inside-1)"/>
</g>
<path d="M58.4026 78.3709C41.1492 78.3709 27.0508 64.8535 27.0508 48.3113C27.0508 42.6396 31.8817 38.0078 37.7972 38.0078C43.7126 38.0078 48.5435 42.6396 48.5435 48.3113C48.5435 53.5103 52.9801 57.6695 58.304 57.6695C63.7265 57.6695 68.0644 53.4157 68.0644 48.3113C68.0644 42.6396 72.8954 38.0078 78.8108 38.0078C84.7262 38.0078 89.5572 42.6396 89.5572 48.3113C89.7544 64.948 75.6559 78.3709 58.4026 78.3709Z" fill="#FFAF6E"/>
<g style="mix-blend-mode:multiply" opacity="0.4">
<path d="M79.0077 52.8485C76.4444 52.8485 74.2754 50.8635 74.2754 48.3112C74.2754 45.8535 76.3458 43.7739 79.0077 43.7739C81.5711 43.7739 83.7401 45.759 83.7401 48.3112C83.6415 50.8635 81.5711 52.8485 79.0077 52.8485ZM79.0077 45.0973C77.1345 45.0973 75.6557 46.5152 75.6557 48.3112C75.6557 50.1072 77.1345 51.5252 79.0077 51.5252C80.881 51.5252 82.3598 50.1072 82.3598 48.3112C82.3598 46.6097 80.881 45.0973 79.0077 45.0973Z" fill="#EE6851"/>
</g>
<g style="mix-blend-mode:multiply" opacity="0.4">
<path d="M79.106 38.0078C79.0074 38.0078 79.0074 38.0078 79.106 38.0078C76.8384 38.0078 74.6694 38.6695 72.9934 39.8038C70.1342 41.6944 68.261 44.8138 68.261 48.4058C68.261 51.3361 66.8808 53.8884 64.7118 55.6844C63.0357 57.0078 60.8667 57.8585 58.5006 57.8585C54.8527 57.8585 51.5992 55.8734 49.9232 53.0376C49.4302 52.0924 49.1345 51.1471 48.9373 50.6744C48.7401 49.9182 48.6415 49.2565 48.6415 48.5003C48.6415 46.2317 47.8528 44.2466 46.6697 42.5451C45.6838 41.2217 44.5007 40.1819 43.0218 39.4257C41.543 38.6695 39.7684 38.1969 37.8951 38.1969C37.8951 38.1969 37.8951 38.1969 37.7966 38.1969C33.4586 38.0078 29.6135 40.56 27.9375 44.2466C29.8107 40.9382 33.8529 39.2367 37.7966 39.2367C43.0218 39.2367 47.3598 43.3013 47.3598 48.4058C47.3598 49.8237 47.6556 51.1471 48.1486 52.4705C46.4725 56.4406 42.4303 59.1819 37.7966 59.1819C44.2049 59.0874 48.5429 56.9132 50.4161 55.7789C52.3879 57.764 55.2471 59.0874 58.402 59.0874C64.5146 59.0874 69.4441 54.361 69.4441 48.5003C69.4441 43.4904 73.6835 39.3312 79.0074 39.3312C82.8524 39.3312 86.796 40.6546 88.6693 43.963C86.8946 40.4655 83.3454 38.1023 79.106 38.0078Z" fill="#EE6851"/>
</g>
<path d="M37.8956 37.6294C31.6844 37.6294 26.6562 42.4503 26.6562 48.4055C26.6562 54.3607 31.6844 59.1816 37.8956 59.1816C43.3181 59.1816 47.9518 55.4005 48.9377 50.4851C49.0363 49.8234 49.1349 49.1617 49.1349 48.5C49.0363 42.4503 44.0082 37.6294 37.8956 37.6294Z" fill="#4563CD"/>
<defs>
<filter id="filter0_d" x="0" y="0" width="118.217" height="118" filterUnits="userSpaceOnUse" color-interpolation-filters="sRGB">
<feFlood flood-opacity="0" result="BackgroundImageFix"/>
<feColorMatrix in="SourceAlpha" type="matrix" values="0 0 0 0 0 0 0 0 0 0 0 0 0 0 0 0 0 0 127 0"/>
<feOffset dx="1" dy="1"/>
<feGaussianBlur stdDeviation="5"/>
<feColorMatrix type="matrix" values="0 0 0 0 0.364706 0 0 0 0 0.482353 0 0 0 0 0.909804 0 0 0 0.2 0"/>
<feBlend mode="normal" in2="BackgroundImageFix" result="effect1_dropShadow"/>
<feBlend mode="normal" in="SourceGraphic" in2="effect1_dropShadow" result="shape"/>
</filter>
</defs>
</svg>
